<mxfile host="www.draw.io" modified="2020-02-18T10:41:34.741Z" agent="Mozilla/5.0 (Macintosh; Intel Mac OS X 10_11_6) AppleWebKit/537.36 (KHTML, like Gecko) Chrome/80.0.3987.106 Safari/537.36" etag="0wbO9ZtmXhclOpks6YPv" version="12.7.1" type="github">
  <diagram id="6rMjJKvZU9B8X_4biRjF" name="Page-1">
    <mxGraphModel dx="1002" dy="482" grid="1" gridSize="10" guides="1" tooltips="1" connect="1" arrows="1" fold="1" page="1" pageScale="1" pageWidth="827" pageHeight="1169" math="0" shadow="0">
      <root>
        <mxCell id="0" />
        <mxCell id="1" parent="0" />
        <mxCell id="jG3nlGbxou0WTmLIbMDZ-7" style="edgeStyle=orthogonalEdgeStyle;rounded=0;orthogonalLoop=1;jettySize=auto;html=1;exitX=1;exitY=0.5;exitDx=0;exitDy=0;fillColor=#f8cecc;strokeColor=#b85450;entryX=0.5;entryY=0;entryDx=0;entryDy=0;" edge="1" parent="1" source="jG3nlGbxou0WTmLIbMDZ-1" target="jG3nlGbxou0WTmLIbMDZ-4">
          <mxGeometry relative="1" as="geometry" />
        </mxCell>
        <mxCell id="jG3nlGbxou0WTmLIbMDZ-41" value="100笔新订单" style="text;html=1;align=center;verticalAlign=middle;resizable=0;points=[];labelBackgroundColor=#ffffff;" vertex="1" connectable="0" parent="jG3nlGbxou0WTmLIbMDZ-7">
          <mxGeometry x="-0.2898" y="4" relative="1" as="geometry">
            <mxPoint as="offset" />
          </mxGeometry>
        </mxCell>
        <mxCell id="jG3nlGbxou0WTmLIbMDZ-35" style="edgeStyle=orthogonalEdgeStyle;rounded=0;orthogonalLoop=1;jettySize=auto;html=1;exitX=0;exitY=0.5;exitDx=0;exitDy=0;entryX=0.5;entryY=0;entryDx=0;entryDy=0;" edge="1" parent="1" source="jG3nlGbxou0WTmLIbMDZ-1" target="jG3nlGbxou0WTmLIbMDZ-3">
          <mxGeometry relative="1" as="geometry" />
        </mxCell>
        <mxCell id="jG3nlGbxou0WTmLIbMDZ-40" value="100笔老订单" style="text;html=1;align=center;verticalAlign=middle;resizable=0;points=[];labelBackgroundColor=#ffffff;" vertex="1" connectable="0" parent="jG3nlGbxou0WTmLIbMDZ-35">
          <mxGeometry x="-0.5184" relative="1" as="geometry">
            <mxPoint as="offset" />
          </mxGeometry>
        </mxCell>
        <mxCell id="jG3nlGbxou0WTmLIbMDZ-1" value="GUOP/OFC" style="rounded=1;whiteSpace=wrap;html=1;" vertex="1" parent="1">
          <mxGeometry x="470" y="50" width="120" height="50" as="geometry" />
        </mxCell>
        <mxCell id="jG3nlGbxou0WTmLIbMDZ-11" style="edgeStyle=orthogonalEdgeStyle;rounded=0;orthogonalLoop=1;jettySize=auto;html=1;exitX=0.5;exitY=1;exitDx=0;exitDy=0;entryX=0.5;entryY=0;entryDx=0;entryDy=0;" edge="1" parent="1" source="jG3nlGbxou0WTmLIbMDZ-3" target="jG3nlGbxou0WTmLIbMDZ-8">
          <mxGeometry relative="1" as="geometry" />
        </mxCell>
        <mxCell id="jG3nlGbxou0WTmLIbMDZ-42" value="100笔老订单" style="text;html=1;align=center;verticalAlign=middle;resizable=0;points=[];labelBackgroundColor=#ffffff;" vertex="1" connectable="0" parent="jG3nlGbxou0WTmLIbMDZ-11">
          <mxGeometry x="-0.3826" y="-1" relative="1" as="geometry">
            <mxPoint as="offset" />
          </mxGeometry>
        </mxCell>
        <mxCell id="jG3nlGbxou0WTmLIbMDZ-3" value="TMS" style="rounded=1;whiteSpace=wrap;html=1;" vertex="1" parent="1">
          <mxGeometry x="200" y="100" width="120" height="60" as="geometry" />
        </mxCell>
        <mxCell id="jG3nlGbxou0WTmLIbMDZ-66" style="edgeStyle=orthogonalEdgeStyle;rounded=0;orthogonalLoop=1;jettySize=auto;html=1;exitX=0;exitY=0.5;exitDx=0;exitDy=0;entryX=0;entryY=0.5;entryDx=0;entryDy=0;" edge="1" parent="1" source="jG3nlGbxou0WTmLIbMDZ-4" target="jG3nlGbxou0WTmLIbMDZ-12">
          <mxGeometry relative="1" as="geometry">
            <Array as="points">
              <mxPoint x="780" y="130" />
              <mxPoint x="780" y="270" />
            </Array>
          </mxGeometry>
        </mxCell>
        <mxCell id="jG3nlGbxou0WTmLIbMDZ-4" value="LNP" style="rounded=1;whiteSpace=wrap;html=1;" vertex="1" parent="1">
          <mxGeometry x="827" y="100" width="120" height="60" as="geometry" />
        </mxCell>
        <mxCell id="jG3nlGbxou0WTmLIbMDZ-38" style="edgeStyle=orthogonalEdgeStyle;rounded=0;orthogonalLoop=1;jettySize=auto;html=1;exitX=0.75;exitY=1;exitDx=0;exitDy=0;" edge="1" parent="1" source="jG3nlGbxou0WTmLIbMDZ-8" target="jG3nlGbxou0WTmLIbMDZ-15">
          <mxGeometry relative="1" as="geometry" />
        </mxCell>
        <mxCell id="jG3nlGbxou0WTmLIbMDZ-39" style="edgeStyle=orthogonalEdgeStyle;rounded=0;orthogonalLoop=1;jettySize=auto;html=1;exitX=0.25;exitY=1;exitDx=0;exitDy=0;" edge="1" parent="1" source="jG3nlGbxou0WTmLIbMDZ-8" target="jG3nlGbxou0WTmLIbMDZ-14">
          <mxGeometry relative="1" as="geometry" />
        </mxCell>
        <mxCell id="jG3nlGbxou0WTmLIbMDZ-56" style="edgeStyle=orthogonalEdgeStyle;rounded=0;orthogonalLoop=1;jettySize=auto;html=1;exitX=1;exitY=0.75;exitDx=0;exitDy=0;entryX=0.075;entryY=0.983;entryDx=0;entryDy=0;entryPerimeter=0;" edge="1" parent="1" source="jG3nlGbxou0WTmLIbMDZ-8" target="jG3nlGbxou0WTmLIbMDZ-12">
          <mxGeometry relative="1" as="geometry">
            <Array as="points">
              <mxPoint x="470" y="465" />
              <mxPoint x="470" y="299" />
            </Array>
          </mxGeometry>
        </mxCell>
        <mxCell id="jG3nlGbxou0WTmLIbMDZ-57" value="&lt;div&gt;1.updateTaskRequestStatus&lt;/div&gt;&lt;div&gt;2.packageStatusUpdate&lt;/div&gt;&lt;div&gt;3.trackingNumberUpdate&lt;/div&gt;&lt;div&gt;4.packageDimensionUpdate&lt;/div&gt;" style="text;html=1;align=left;verticalAlign=middle;resizable=0;points=[];labelBackgroundColor=#ffffff;" vertex="1" connectable="0" parent="jG3nlGbxou0WTmLIbMDZ-56">
          <mxGeometry x="0.2517" y="-2" relative="1" as="geometry">
            <mxPoint x="-91" y="29.01" as="offset" />
          </mxGeometry>
        </mxCell>
        <mxCell id="jG3nlGbxou0WTmLIbMDZ-8" value="TPS" style="rounded=1;whiteSpace=wrap;html=1;" vertex="1" parent="1">
          <mxGeometry x="200" y="420" width="120" height="60" as="geometry" />
        </mxCell>
        <mxCell id="jG3nlGbxou0WTmLIbMDZ-37" style="edgeStyle=orthogonalEdgeStyle;rounded=0;orthogonalLoop=1;jettySize=auto;html=1;exitX=0;exitY=0.5;exitDx=0;exitDy=0;entryX=1;entryY=0.5;entryDx=0;entryDy=0;fillColor=#f8cecc;strokeColor=#b85450;" edge="1" parent="1" source="jG3nlGbxou0WTmLIbMDZ-12" target="jG3nlGbxou0WTmLIbMDZ-8">
          <mxGeometry relative="1" as="geometry">
            <Array as="points">
              <mxPoint x="420" y="270" />
              <mxPoint x="420" y="450" />
            </Array>
          </mxGeometry>
        </mxCell>
        <mxCell id="jG3nlGbxou0WTmLIbMDZ-44" value="100笔新订单老实操" style="text;html=1;align=center;verticalAlign=middle;resizable=0;points=[];labelBackgroundColor=#ffffff;" vertex="1" connectable="0" parent="jG3nlGbxou0WTmLIbMDZ-37">
          <mxGeometry x="-0.6241" y="-2" relative="1" as="geometry">
            <mxPoint x="-184" y="-58" as="offset" />
          </mxGeometry>
        </mxCell>
        <mxCell id="jG3nlGbxou0WTmLIbMDZ-67" style="edgeStyle=orthogonalEdgeStyle;rounded=0;orthogonalLoop=1;jettySize=auto;html=1;exitX=1;exitY=0.5;exitDx=0;exitDy=0;entryX=1;entryY=0.5;entryDx=0;entryDy=0;" edge="1" parent="1" source="jG3nlGbxou0WTmLIbMDZ-12" target="jG3nlGbxou0WTmLIbMDZ-4">
          <mxGeometry relative="1" as="geometry">
            <Array as="points">
              <mxPoint x="990" y="270" />
              <mxPoint x="990" y="130" />
            </Array>
          </mxGeometry>
        </mxCell>
        <mxCell id="jG3nlGbxou0WTmLIbMDZ-68" value="&lt;div&gt;1.checkDeliveryCoverage&lt;/div&gt;&lt;div&gt;2.journeyStatusMessage&lt;/div&gt;&lt;div&gt;3.fetchPackageJourney&lt;/div&gt;&lt;div&gt;4.cancelPackageStatusMessage&lt;/div&gt;&lt;div&gt;5.updateTrackingNumber&lt;/div&gt;&lt;div&gt;6.updatePackageDimweight&lt;/div&gt;&lt;div&gt;7.correctAddress&lt;/div&gt;&lt;div&gt;8sendGeoCode&lt;/div&gt;" style="text;html=1;align=left;verticalAlign=middle;resizable=0;points=[];labelBackgroundColor=#ffffff;" vertex="1" connectable="0" parent="jG3nlGbxou0WTmLIbMDZ-67">
          <mxGeometry x="0.1429" y="-1" relative="1" as="geometry">
            <mxPoint x="1" y="14" as="offset" />
          </mxGeometry>
        </mxCell>
        <mxCell id="jG3nlGbxou0WTmLIbMDZ-12" value="&lt;font style=&quot;font-size: 18px&quot;&gt;OTM&lt;/font&gt;&lt;br&gt;package|task&lt;br&gt;mobile_unit|logistic_request" style="rounded=1;whiteSpace=wrap;html=1;" vertex="1" parent="1">
          <mxGeometry x="790" y="240" width="190" height="60" as="geometry" />
        </mxCell>
        <mxCell id="jG3nlGbxou0WTmLIbMDZ-14" value="3PLs" style="rounded=1;whiteSpace=wrap;html=1;" vertex="1" parent="1">
          <mxGeometry x="100" y="560" width="120" height="60" as="geometry" />
        </mxCell>
        <mxCell id="jG3nlGbxou0WTmLIbMDZ-20" style="edgeStyle=orthogonalEdgeStyle;rounded=0;orthogonalLoop=1;jettySize=auto;html=1;exitX=0.25;exitY=1;exitDx=0;exitDy=0;" edge="1" parent="1" source="jG3nlGbxou0WTmLIbMDZ-15" target="jG3nlGbxou0WTmLIbMDZ-18">
          <mxGeometry relative="1" as="geometry" />
        </mxCell>
        <mxCell id="jG3nlGbxou0WTmLIbMDZ-21" style="edgeStyle=orthogonalEdgeStyle;rounded=0;orthogonalLoop=1;jettySize=auto;html=1;exitX=0.75;exitY=1;exitDx=0;exitDy=0;entryX=0.25;entryY=0;entryDx=0;entryDy=0;" edge="1" parent="1" source="jG3nlGbxou0WTmLIbMDZ-15" target="jG3nlGbxou0WTmLIbMDZ-19">
          <mxGeometry relative="1" as="geometry" />
        </mxCell>
        <mxCell id="jG3nlGbxou0WTmLIbMDZ-15" value="&lt;font&gt;&lt;span style=&quot;font-size: 18px&quot;&gt;LMS-CORE&lt;/span&gt;&lt;br&gt;&lt;font style=&quot;font-size: 12px&quot;&gt;task|?|?&lt;/font&gt;&lt;br&gt;&lt;/font&gt;" style="rounded=1;whiteSpace=wrap;html=1;" vertex="1" parent="1">
          <mxGeometry x="310" y="560" width="120" height="60" as="geometry" />
        </mxCell>
        <mxCell id="jG3nlGbxou0WTmLIbMDZ-18" value="PickMee DOP" style="rounded=1;whiteSpace=wrap;html=1;" vertex="1" parent="1">
          <mxGeometry x="230" y="670" width="120" height="60" as="geometry" />
        </mxCell>
        <mxCell id="jG3nlGbxou0WTmLIbMDZ-19" value="LMS-LM" style="rounded=1;whiteSpace=wrap;html=1;" vertex="1" parent="1">
          <mxGeometry x="410" y="670" width="120" height="60" as="geometry" />
        </mxCell>
        <mxCell id="jG3nlGbxou0WTmLIbMDZ-48" value="&lt;div&gt;1.packageCreation&lt;/div&gt;&lt;div&gt;2.packageCancellation&lt;/div&gt;&lt;div&gt;3.packageHandover&lt;/div&gt;" style="text;html=1;align=left;verticalAlign=middle;resizable=0;points=[];autosize=1;" vertex="1" parent="1">
          <mxGeometry x="420" y="220" width="140" height="50" as="geometry" />
        </mxCell>
        <mxCell id="jG3nlGbxou0WTmLIbMDZ-62" value="" style="group" vertex="1" connectable="0" parent="1">
          <mxGeometry x="697" y="420" width="370" height="80" as="geometry" />
        </mxCell>
        <mxCell id="jG3nlGbxou0WTmLIbMDZ-59" value="" style="shape=ext;double=1;rounded=0;whiteSpace=wrap;html=1;align=left;" vertex="1" parent="jG3nlGbxou0WTmLIbMDZ-62">
          <mxGeometry width="370" height="80" as="geometry" />
        </mxCell>
        <mxCell id="jG3nlGbxou0WTmLIbMDZ-22" value="station" style="rounded=1;whiteSpace=wrap;html=1;" vertex="1" parent="jG3nlGbxou0WTmLIbMDZ-62">
          <mxGeometry x="15" y="10" width="60" height="60" as="geometry" />
        </mxCell>
        <mxCell id="jG3nlGbxou0WTmLIbMDZ-23" value="FM" style="rounded=1;whiteSpace=wrap;html=1;" vertex="1" parent="jG3nlGbxou0WTmLIbMDZ-62">
          <mxGeometry x="85" y="10" width="60" height="60" as="geometry" />
        </mxCell>
        <mxCell id="jG3nlGbxou0WTmLIbMDZ-24" value="SORT" style="rounded=1;whiteSpace=wrap;html=1;" vertex="1" parent="jG3nlGbxou0WTmLIbMDZ-62">
          <mxGeometry x="155" y="10" width="60" height="60" as="geometry" />
        </mxCell>
        <mxCell id="jG3nlGbxou0WTmLIbMDZ-28" value="LH" style="rounded=1;whiteSpace=wrap;html=1;" vertex="1" parent="jG3nlGbxou0WTmLIbMDZ-62">
          <mxGeometry x="225" y="10" width="60" height="60" as="geometry" />
        </mxCell>
        <mxCell id="jG3nlGbxou0WTmLIbMDZ-29" value="LM" style="rounded=1;whiteSpace=wrap;html=1;" vertex="1" parent="jG3nlGbxou0WTmLIbMDZ-62">
          <mxGeometry x="295" y="10" width="60" height="60" as="geometry" />
        </mxCell>
        <mxCell id="jG3nlGbxou0WTmLIbMDZ-65" value="&lt;div&gt;1.createPackageJourney&lt;/div&gt;&lt;div&gt;2.updatePackageJourney&lt;/div&gt;&lt;div&gt;3.cancelPackage&lt;/div&gt;&lt;div&gt;4.reship&lt;/div&gt;" style="text;html=1;align=left;verticalAlign=middle;resizable=0;points=[];autosize=1;" vertex="1" parent="1">
          <mxGeometry x="650" y="160" width="150" height="60" as="geometry" />
        </mxCell>
        <mxCell id="jG3nlGbxou0WTmLIbMDZ-133" value="" style="group" vertex="1" connectable="0" parent="1">
          <mxGeometry x="20" y="1020" width="1020" height="680" as="geometry" />
        </mxCell>
        <mxCell id="jG3nlGbxou0WTmLIbMDZ-82" value="GUOP/OFC" style="rounded=1;whiteSpace=wrap;html=1;" vertex="1" parent="jG3nlGbxou0WTmLIbMDZ-133">
          <mxGeometry x="370" width="120" height="50" as="geometry" />
        </mxCell>
        <mxCell id="jG3nlGbxou0WTmLIbMDZ-85" value="TMS&lt;br&gt;package|?|?" style="rounded=1;whiteSpace=wrap;html=1;" vertex="1" parent="jG3nlGbxou0WTmLIbMDZ-133">
          <mxGeometry x="100" y="50" width="120" height="60" as="geometry" />
        </mxCell>
        <mxCell id="jG3nlGbxou0WTmLIbMDZ-80" style="edgeStyle=orthogonalEdgeStyle;rounded=0;orthogonalLoop=1;jettySize=auto;html=1;exitX=0;exitY=0.5;exitDx=0;exitDy=0;entryX=0.5;entryY=0;entryDx=0;entryDy=0;" edge="1" parent="jG3nlGbxou0WTmLIbMDZ-133" source="jG3nlGbxou0WTmLIbMDZ-82" target="jG3nlGbxou0WTmLIbMDZ-85">
          <mxGeometry relative="1" as="geometry" />
        </mxCell>
        <mxCell id="jG3nlGbxou0WTmLIbMDZ-81" value="100笔老订单" style="text;html=1;align=center;verticalAlign=middle;resizable=0;points=[];labelBackgroundColor=#ffffff;" vertex="1" connectable="0" parent="jG3nlGbxou0WTmLIbMDZ-80">
          <mxGeometry x="-0.5184" relative="1" as="geometry">
            <mxPoint as="offset" />
          </mxGeometry>
        </mxCell>
        <mxCell id="jG3nlGbxou0WTmLIbMDZ-87" value="LNP" style="rounded=1;whiteSpace=wrap;html=1;" vertex="1" parent="jG3nlGbxou0WTmLIbMDZ-133">
          <mxGeometry x="727" y="50" width="120" height="60" as="geometry" />
        </mxCell>
        <mxCell id="jG3nlGbxou0WTmLIbMDZ-78" style="edgeStyle=orthogonalEdgeStyle;rounded=0;orthogonalLoop=1;jettySize=auto;html=1;exitX=1;exitY=0.5;exitDx=0;exitDy=0;fillColor=#f8cecc;strokeColor=#b85450;entryX=0.5;entryY=0;entryDx=0;entryDy=0;" edge="1" parent="jG3nlGbxou0WTmLIbMDZ-133" source="jG3nlGbxou0WTmLIbMDZ-82" target="jG3nlGbxou0WTmLIbMDZ-87">
          <mxGeometry relative="1" as="geometry" />
        </mxCell>
        <mxCell id="jG3nlGbxou0WTmLIbMDZ-79" value="100笔新订单" style="text;html=1;align=center;verticalAlign=middle;resizable=0;points=[];labelBackgroundColor=#ffffff;" vertex="1" connectable="0" parent="jG3nlGbxou0WTmLIbMDZ-78">
          <mxGeometry x="-0.2898" y="4" relative="1" as="geometry">
            <mxPoint as="offset" />
          </mxGeometry>
        </mxCell>
        <mxCell id="jG3nlGbxou0WTmLIbMDZ-92" value="TPS" style="rounded=1;whiteSpace=wrap;html=1;" vertex="1" parent="jG3nlGbxou0WTmLIbMDZ-133">
          <mxGeometry x="100" y="370" width="120" height="60" as="geometry" />
        </mxCell>
        <mxCell id="jG3nlGbxou0WTmLIbMDZ-83" style="edgeStyle=orthogonalEdgeStyle;rounded=0;orthogonalLoop=1;jettySize=auto;html=1;exitX=0.5;exitY=1;exitDx=0;exitDy=0;entryX=0.5;entryY=0;entryDx=0;entryDy=0;" edge="1" parent="jG3nlGbxou0WTmLIbMDZ-133" source="jG3nlGbxou0WTmLIbMDZ-85" target="jG3nlGbxou0WTmLIbMDZ-92">
          <mxGeometry relative="1" as="geometry" />
        </mxCell>
        <mxCell id="jG3nlGbxou0WTmLIbMDZ-84" value="100笔老订单" style="text;html=1;align=center;verticalAlign=middle;resizable=0;points=[];labelBackgroundColor=#ffffff;" vertex="1" connectable="0" parent="jG3nlGbxou0WTmLIbMDZ-83">
          <mxGeometry x="-0.3826" y="-1" relative="1" as="geometry">
            <mxPoint as="offset" />
          </mxGeometry>
        </mxCell>
        <mxCell id="jG3nlGbxou0WTmLIbMDZ-93" style="edgeStyle=orthogonalEdgeStyle;rounded=0;orthogonalLoop=1;jettySize=auto;html=1;exitX=0;exitY=0.5;exitDx=0;exitDy=0;entryX=1;entryY=0.5;entryDx=0;entryDy=0;fillColor=#f8cecc;strokeColor=#b85450;" edge="1" parent="jG3nlGbxou0WTmLIbMDZ-133" source="jG3nlGbxou0WTmLIbMDZ-98" target="jG3nlGbxou0WTmLIbMDZ-92">
          <mxGeometry relative="1" as="geometry">
            <Array as="points">
              <mxPoint x="320" y="220" />
              <mxPoint x="320" y="400" />
            </Array>
          </mxGeometry>
        </mxCell>
        <mxCell id="jG3nlGbxou0WTmLIbMDZ-95" style="edgeStyle=orthogonalEdgeStyle;rounded=0;orthogonalLoop=1;jettySize=auto;html=1;exitX=1;exitY=0.5;exitDx=0;exitDy=0;entryX=1;entryY=0.5;entryDx=0;entryDy=0;" edge="1" parent="jG3nlGbxou0WTmLIbMDZ-133" source="jG3nlGbxou0WTmLIbMDZ-98" target="jG3nlGbxou0WTmLIbMDZ-87">
          <mxGeometry relative="1" as="geometry">
            <Array as="points">
              <mxPoint x="890" y="220" />
              <mxPoint x="890" y="80" />
            </Array>
          </mxGeometry>
        </mxCell>
        <mxCell id="jG3nlGbxou0WTmLIbMDZ-96" value="&lt;div&gt;1.checkDeliveryCoverage&lt;/div&gt;&lt;div&gt;2.journeyStatusMessage&lt;/div&gt;&lt;div&gt;3.fetchPackageJourney&lt;/div&gt;&lt;div&gt;4.cancelPackageStatusMessage&lt;/div&gt;&lt;div&gt;5.updateTrackingNumber&lt;/div&gt;&lt;div&gt;6.updatePackageDimweight&lt;/div&gt;&lt;div&gt;7.correctAddress&lt;/div&gt;&lt;div&gt;8sendGeoCode&lt;/div&gt;" style="text;html=1;align=left;verticalAlign=middle;resizable=0;points=[];labelBackgroundColor=#ffffff;" vertex="1" connectable="0" parent="jG3nlGbxou0WTmLIbMDZ-95">
          <mxGeometry x="0.1429" y="-1" relative="1" as="geometry">
            <mxPoint x="1" y="14" as="offset" />
          </mxGeometry>
        </mxCell>
        <mxCell id="jG3nlGbxou0WTmLIbMDZ-98" value="&lt;font style=&quot;font-size: 18px&quot;&gt;OTM&lt;/font&gt;&lt;br&gt;package|task&lt;br&gt;mobile_unit|logistic_request" style="rounded=1;whiteSpace=wrap;html=1;" vertex="1" parent="jG3nlGbxou0WTmLIbMDZ-133">
          <mxGeometry x="690" y="190" width="190" height="60" as="geometry" />
        </mxCell>
        <mxCell id="jG3nlGbxou0WTmLIbMDZ-117" style="edgeStyle=orthogonalEdgeStyle;rounded=0;orthogonalLoop=1;jettySize=auto;html=1;exitX=1;exitY=0.5;exitDx=0;exitDy=0;entryX=0;entryY=0.25;entryDx=0;entryDy=0;" edge="1" parent="jG3nlGbxou0WTmLIbMDZ-133" source="jG3nlGbxou0WTmLIbMDZ-85" target="jG3nlGbxou0WTmLIbMDZ-98">
          <mxGeometry relative="1" as="geometry" />
        </mxCell>
        <mxCell id="jG3nlGbxou0WTmLIbMDZ-86" style="edgeStyle=orthogonalEdgeStyle;rounded=0;orthogonalLoop=1;jettySize=auto;html=1;exitX=0;exitY=0.5;exitDx=0;exitDy=0;entryX=0;entryY=0.5;entryDx=0;entryDy=0;" edge="1" parent="jG3nlGbxou0WTmLIbMDZ-133" source="jG3nlGbxou0WTmLIbMDZ-87" target="jG3nlGbxou0WTmLIbMDZ-98">
          <mxGeometry relative="1" as="geometry">
            <Array as="points">
              <mxPoint x="680" y="80" />
              <mxPoint x="680" y="220" />
            </Array>
          </mxGeometry>
        </mxCell>
        <mxCell id="jG3nlGbxou0WTmLIbMDZ-90" style="edgeStyle=orthogonalEdgeStyle;rounded=0;orthogonalLoop=1;jettySize=auto;html=1;exitX=1;exitY=0.75;exitDx=0;exitDy=0;entryX=0.075;entryY=0.983;entryDx=0;entryDy=0;entryPerimeter=0;" edge="1" parent="jG3nlGbxou0WTmLIbMDZ-133" source="jG3nlGbxou0WTmLIbMDZ-92" target="jG3nlGbxou0WTmLIbMDZ-98">
          <mxGeometry relative="1" as="geometry">
            <Array as="points">
              <mxPoint x="370" y="415" />
              <mxPoint x="370" y="249" />
            </Array>
          </mxGeometry>
        </mxCell>
        <mxCell id="jG3nlGbxou0WTmLIbMDZ-91" value="&lt;div&gt;1.updateTaskRequestStatus&lt;/div&gt;&lt;div&gt;2.packageStatusUpdate&lt;/div&gt;&lt;div&gt;3.trackingNumberUpdate&lt;/div&gt;&lt;div&gt;4.packageDimensionUpdate&lt;/div&gt;" style="text;html=1;align=left;verticalAlign=middle;resizable=0;points=[];labelBackgroundColor=#ffffff;" vertex="1" connectable="0" parent="jG3nlGbxou0WTmLIbMDZ-90">
          <mxGeometry x="0.2517" y="-2" relative="1" as="geometry">
            <mxPoint x="-91" y="29.01" as="offset" />
          </mxGeometry>
        </mxCell>
        <mxCell id="jG3nlGbxou0WTmLIbMDZ-99" value="3PLs" style="rounded=1;whiteSpace=wrap;html=1;" vertex="1" parent="jG3nlGbxou0WTmLIbMDZ-133">
          <mxGeometry y="510" width="120" height="60" as="geometry" />
        </mxCell>
        <mxCell id="jG3nlGbxou0WTmLIbMDZ-89" style="edgeStyle=orthogonalEdgeStyle;rounded=0;orthogonalLoop=1;jettySize=auto;html=1;exitX=0.25;exitY=1;exitDx=0;exitDy=0;" edge="1" parent="jG3nlGbxou0WTmLIbMDZ-133" source="jG3nlGbxou0WTmLIbMDZ-92" target="jG3nlGbxou0WTmLIbMDZ-99">
          <mxGeometry relative="1" as="geometry" />
        </mxCell>
        <mxCell id="jG3nlGbxou0WTmLIbMDZ-102" value="&lt;font&gt;&lt;span style=&quot;font-size: 18px&quot;&gt;LMS-CORE&lt;/span&gt;&lt;br&gt;&lt;font style=&quot;font-size: 12px&quot;&gt;task|?|?&lt;/font&gt;&lt;br&gt;&lt;/font&gt;" style="rounded=1;whiteSpace=wrap;html=1;" vertex="1" parent="jG3nlGbxou0WTmLIbMDZ-133">
          <mxGeometry x="210" y="510" width="120" height="60" as="geometry" />
        </mxCell>
        <mxCell id="jG3nlGbxou0WTmLIbMDZ-88" style="edgeStyle=orthogonalEdgeStyle;rounded=0;orthogonalLoop=1;jettySize=auto;html=1;exitX=0.75;exitY=1;exitDx=0;exitDy=0;" edge="1" parent="jG3nlGbxou0WTmLIbMDZ-133" source="jG3nlGbxou0WTmLIbMDZ-92" target="jG3nlGbxou0WTmLIbMDZ-102">
          <mxGeometry relative="1" as="geometry" />
        </mxCell>
        <mxCell id="jG3nlGbxou0WTmLIbMDZ-103" value="PickMee DOP" style="rounded=1;whiteSpace=wrap;html=1;" vertex="1" parent="jG3nlGbxou0WTmLIbMDZ-133">
          <mxGeometry x="130" y="620" width="120" height="60" as="geometry" />
        </mxCell>
        <mxCell id="jG3nlGbxou0WTmLIbMDZ-100" style="edgeStyle=orthogonalEdgeStyle;rounded=0;orthogonalLoop=1;jettySize=auto;html=1;exitX=0.25;exitY=1;exitDx=0;exitDy=0;" edge="1" parent="jG3nlGbxou0WTmLIbMDZ-133" source="jG3nlGbxou0WTmLIbMDZ-102" target="jG3nlGbxou0WTmLIbMDZ-103">
          <mxGeometry relative="1" as="geometry" />
        </mxCell>
        <mxCell id="jG3nlGbxou0WTmLIbMDZ-104" value="LMS-LM" style="rounded=1;whiteSpace=wrap;html=1;" vertex="1" parent="jG3nlGbxou0WTmLIbMDZ-133">
          <mxGeometry x="310" y="620" width="120" height="60" as="geometry" />
        </mxCell>
        <mxCell id="jG3nlGbxou0WTmLIbMDZ-101" style="edgeStyle=orthogonalEdgeStyle;rounded=0;orthogonalLoop=1;jettySize=auto;html=1;exitX=0.75;exitY=1;exitDx=0;exitDy=0;entryX=0.25;entryY=0;entryDx=0;entryDy=0;" edge="1" parent="jG3nlGbxou0WTmLIbMDZ-133" source="jG3nlGbxou0WTmLIbMDZ-102" target="jG3nlGbxou0WTmLIbMDZ-104">
          <mxGeometry relative="1" as="geometry" />
        </mxCell>
        <mxCell id="jG3nlGbxou0WTmLIbMDZ-105" value="&lt;div&gt;1.packageCreation&lt;/div&gt;&lt;div&gt;2.packageCancellation&lt;/div&gt;&lt;div&gt;3.packageHandover&lt;/div&gt;" style="text;html=1;align=left;verticalAlign=middle;resizable=0;points=[];autosize=1;" vertex="1" parent="jG3nlGbxou0WTmLIbMDZ-133">
          <mxGeometry x="230" y="250" width="140" height="50" as="geometry" />
        </mxCell>
        <mxCell id="jG3nlGbxou0WTmLIbMDZ-106" value="" style="group" vertex="1" connectable="0" parent="jG3nlGbxou0WTmLIbMDZ-133">
          <mxGeometry x="597" y="370" width="370" height="80" as="geometry" />
        </mxCell>
        <mxCell id="jG3nlGbxou0WTmLIbMDZ-107" value="" style="shape=ext;double=1;rounded=0;whiteSpace=wrap;html=1;align=left;" vertex="1" parent="jG3nlGbxou0WTmLIbMDZ-106">
          <mxGeometry width="370" height="80" as="geometry" />
        </mxCell>
        <mxCell id="jG3nlGbxou0WTmLIbMDZ-108" value="station" style="rounded=1;whiteSpace=wrap;html=1;" vertex="1" parent="jG3nlGbxou0WTmLIbMDZ-106">
          <mxGeometry x="15" y="10" width="60" height="60" as="geometry" />
        </mxCell>
        <mxCell id="jG3nlGbxou0WTmLIbMDZ-109" value="FM" style="rounded=1;whiteSpace=wrap;html=1;" vertex="1" parent="jG3nlGbxou0WTmLIbMDZ-106">
          <mxGeometry x="85" y="10" width="60" height="60" as="geometry" />
        </mxCell>
        <mxCell id="jG3nlGbxou0WTmLIbMDZ-110" value="SORT" style="rounded=1;whiteSpace=wrap;html=1;" vertex="1" parent="jG3nlGbxou0WTmLIbMDZ-106">
          <mxGeometry x="155" y="10" width="60" height="60" as="geometry" />
        </mxCell>
        <mxCell id="jG3nlGbxou0WTmLIbMDZ-111" value="LH" style="rounded=1;whiteSpace=wrap;html=1;" vertex="1" parent="jG3nlGbxou0WTmLIbMDZ-106">
          <mxGeometry x="225" y="10" width="60" height="60" as="geometry" />
        </mxCell>
        <mxCell id="jG3nlGbxou0WTmLIbMDZ-112" value="LM" style="rounded=1;whiteSpace=wrap;html=1;" vertex="1" parent="jG3nlGbxou0WTmLIbMDZ-106">
          <mxGeometry x="295" y="10" width="60" height="60" as="geometry" />
        </mxCell>
        <mxCell id="jG3nlGbxou0WTmLIbMDZ-113" value="&lt;div&gt;1.createPackageJourney&lt;/div&gt;&lt;div&gt;2.updatePackageJourney&lt;/div&gt;&lt;div&gt;3.cancelPackage&lt;/div&gt;&lt;div&gt;4.reship&lt;/div&gt;" style="text;html=1;align=left;verticalAlign=middle;resizable=0;points=[];autosize=1;" vertex="1" parent="jG3nlGbxou0WTmLIbMDZ-133">
          <mxGeometry x="550" y="110" width="150" height="60" as="geometry" />
        </mxCell>
        <mxCell id="jG3nlGbxou0WTmLIbMDZ-118" value="&lt;div&gt;1.??&lt;/div&gt;&lt;div&gt;2.??&lt;/div&gt;&lt;div&gt;3.??&lt;/div&gt;" style="text;html=1;align=left;verticalAlign=middle;resizable=0;points=[];autosize=1;" vertex="1" parent="jG3nlGbxou0WTmLIbMDZ-133">
          <mxGeometry x="310" y="80" width="40" height="50" as="geometry" />
        </mxCell>
        <mxCell id="jG3nlGbxou0WTmLIbMDZ-125" value="" style="verticalLabelPosition=bottom;verticalAlign=top;html=1;shape=mxgraph.basic.x;align=left;" vertex="1" parent="jG3nlGbxou0WTmLIbMDZ-133">
          <mxGeometry x="148" y="220" width="20" height="20" as="geometry" />
        </mxCell>
        <mxCell id="jG3nlGbxou0WTmLIbMDZ-135" value="GUOP/OFC" style="rounded=1;whiteSpace=wrap;html=1;" vertex="1" parent="1">
          <mxGeometry x="400" y="1810" width="120" height="50" as="geometry" />
        </mxCell>
        <mxCell id="jG3nlGbxou0WTmLIbMDZ-184" style="edgeStyle=orthogonalEdgeStyle;rounded=0;orthogonalLoop=1;jettySize=auto;html=1;exitX=1;exitY=0.5;exitDx=0;exitDy=0;entryX=0.25;entryY=0;entryDx=0;entryDy=0;" edge="1" parent="1" source="jG3nlGbxou0WTmLIbMDZ-136" target="jG3nlGbxou0WTmLIbMDZ-148">
          <mxGeometry relative="1" as="geometry" />
        </mxCell>
        <mxCell id="jG3nlGbxou0WTmLIbMDZ-136" value="TMS&lt;br&gt;package|?|?" style="rounded=1;whiteSpace=wrap;html=1;" vertex="1" parent="1">
          <mxGeometry x="130" y="1860" width="120" height="60" as="geometry" />
        </mxCell>
        <mxCell id="jG3nlGbxou0WTmLIbMDZ-137" style="edgeStyle=orthogonalEdgeStyle;rounded=0;orthogonalLoop=1;jettySize=auto;html=1;exitX=0;exitY=0.5;exitDx=0;exitDy=0;entryX=0.5;entryY=0;entryDx=0;entryDy=0;" edge="1" parent="1" source="jG3nlGbxou0WTmLIbMDZ-135" target="jG3nlGbxou0WTmLIbMDZ-136">
          <mxGeometry relative="1" as="geometry" />
        </mxCell>
        <mxCell id="jG3nlGbxou0WTmLIbMDZ-138" value="100笔老订单" style="text;html=1;align=center;verticalAlign=middle;resizable=0;points=[];labelBackgroundColor=#ffffff;" vertex="1" connectable="0" parent="jG3nlGbxou0WTmLIbMDZ-137">
          <mxGeometry x="-0.5184" relative="1" as="geometry">
            <mxPoint as="offset" />
          </mxGeometry>
        </mxCell>
        <mxCell id="jG3nlGbxou0WTmLIbMDZ-174" style="edgeStyle=orthogonalEdgeStyle;rounded=0;orthogonalLoop=1;jettySize=auto;html=1;exitX=0;exitY=0.5;exitDx=0;exitDy=0;entryX=0.5;entryY=0;entryDx=0;entryDy=0;" edge="1" parent="1" source="jG3nlGbxou0WTmLIbMDZ-139" target="jG3nlGbxou0WTmLIbMDZ-148">
          <mxGeometry relative="1" as="geometry" />
        </mxCell>
        <mxCell id="jG3nlGbxou0WTmLIbMDZ-139" value="LNP" style="rounded=1;whiteSpace=wrap;html=1;" vertex="1" parent="1">
          <mxGeometry x="757" y="1860" width="120" height="60" as="geometry" />
        </mxCell>
        <mxCell id="jG3nlGbxou0WTmLIbMDZ-140" style="edgeStyle=orthogonalEdgeStyle;rounded=0;orthogonalLoop=1;jettySize=auto;html=1;exitX=1;exitY=0.5;exitDx=0;exitDy=0;fillColor=#f8cecc;strokeColor=#b85450;entryX=0.5;entryY=0;entryDx=0;entryDy=0;" edge="1" parent="1" source="jG3nlGbxou0WTmLIbMDZ-135" target="jG3nlGbxou0WTmLIbMDZ-139">
          <mxGeometry relative="1" as="geometry" />
        </mxCell>
        <mxCell id="jG3nlGbxou0WTmLIbMDZ-141" value="100笔新订单" style="text;html=1;align=center;verticalAlign=middle;resizable=0;points=[];labelBackgroundColor=#ffffff;" vertex="1" connectable="0" parent="jG3nlGbxou0WTmLIbMDZ-140">
          <mxGeometry x="-0.2898" y="4" relative="1" as="geometry">
            <mxPoint as="offset" />
          </mxGeometry>
        </mxCell>
        <mxCell id="jG3nlGbxou0WTmLIbMDZ-175" style="edgeStyle=orthogonalEdgeStyle;rounded=0;orthogonalLoop=1;jettySize=auto;html=1;exitX=0.25;exitY=0;exitDx=0;exitDy=0;entryX=0;entryY=0.5;entryDx=0;entryDy=0;" edge="1" parent="1" source="jG3nlGbxou0WTmLIbMDZ-142" target="jG3nlGbxou0WTmLIbMDZ-148">
          <mxGeometry relative="1" as="geometry" />
        </mxCell>
        <mxCell id="jG3nlGbxou0WTmLIbMDZ-146" style="edgeStyle=orthogonalEdgeStyle;rounded=0;orthogonalLoop=1;jettySize=auto;html=1;exitX=1;exitY=0.5;exitDx=0;exitDy=0;entryX=1;entryY=0.5;entryDx=0;entryDy=0;" edge="1" parent="1" source="jG3nlGbxou0WTmLIbMDZ-148" target="jG3nlGbxou0WTmLIbMDZ-139">
          <mxGeometry relative="1" as="geometry">
            <Array as="points">
              <mxPoint x="555" y="1980" />
              <mxPoint x="920" y="1980" />
              <mxPoint x="920" y="1890" />
            </Array>
          </mxGeometry>
        </mxCell>
        <mxCell id="jG3nlGbxou0WTmLIbMDZ-147" value="&lt;div&gt;1.checkDeliveryCoverage&lt;/div&gt;&lt;div&gt;2.journeyStatusMessage&lt;/div&gt;&lt;div&gt;3.fetchPackageJourney&lt;/div&gt;&lt;div&gt;4.cancelPackageStatusMessage&lt;/div&gt;&lt;div&gt;5.updateTrackingNumber&lt;/div&gt;&lt;div&gt;6.updatePackageDimweight&lt;/div&gt;&lt;div&gt;7.correctAddress&lt;/div&gt;&lt;div&gt;8sendGeoCode&lt;/div&gt;" style="text;html=1;align=left;verticalAlign=middle;resizable=0;points=[];labelBackgroundColor=#ffffff;" vertex="1" connectable="0" parent="jG3nlGbxou0WTmLIbMDZ-146">
          <mxGeometry x="0.1429" y="-1" relative="1" as="geometry">
            <mxPoint x="-93" y="9" as="offset" />
          </mxGeometry>
        </mxCell>
        <mxCell id="jG3nlGbxou0WTmLIbMDZ-185" style="edgeStyle=orthogonalEdgeStyle;rounded=0;orthogonalLoop=1;jettySize=auto;html=1;exitX=0;exitY=0.25;exitDx=0;exitDy=0;entryX=0.5;entryY=1;entryDx=0;entryDy=0;" edge="1" parent="1" source="jG3nlGbxou0WTmLIbMDZ-148" target="jG3nlGbxou0WTmLIbMDZ-136">
          <mxGeometry relative="1" as="geometry" />
        </mxCell>
        <mxCell id="jG3nlGbxou0WTmLIbMDZ-191" style="edgeStyle=orthogonalEdgeStyle;rounded=0;orthogonalLoop=1;jettySize=auto;html=1;exitX=0.75;exitY=1;exitDx=0;exitDy=0;entryX=0.292;entryY=0;entryDx=0;entryDy=0;entryPerimeter=0;" edge="1" parent="1" source="jG3nlGbxou0WTmLIbMDZ-148" target="jG3nlGbxou0WTmLIbMDZ-163">
          <mxGeometry relative="1" as="geometry">
            <Array as="points" />
          </mxGeometry>
        </mxCell>
        <mxCell id="jG3nlGbxou0WTmLIbMDZ-198" style="edgeStyle=orthogonalEdgeStyle;rounded=0;orthogonalLoop=1;jettySize=auto;html=1;exitX=0.5;exitY=1;exitDx=0;exitDy=0;entryX=0.211;entryY=0;entryDx=0;entryDy=0;entryPerimeter=0;" edge="1" parent="1" source="jG3nlGbxou0WTmLIbMDZ-148" target="jG3nlGbxou0WTmLIbMDZ-163">
          <mxGeometry relative="1" as="geometry">
            <Array as="points">
              <mxPoint x="478" y="2020" />
            </Array>
          </mxGeometry>
        </mxCell>
        <mxCell id="jG3nlGbxou0WTmLIbMDZ-148" value="&lt;font style=&quot;font-size: 18px&quot;&gt;OTM&lt;/font&gt;&lt;br&gt;package|task&lt;br&gt;mobile_unit|logistic_request" style="rounded=1;whiteSpace=wrap;html=1;" vertex="1" parent="1">
          <mxGeometry x="365" y="1960" width="190" height="60" as="geometry" />
        </mxCell>
        <mxCell id="jG3nlGbxou0WTmLIbMDZ-161" value="&lt;div&gt;1.packageCreation&lt;/div&gt;&lt;div&gt;2.packageCancellation&lt;/div&gt;&lt;div&gt;3.packageHandover&lt;/div&gt;" style="text;html=1;align=left;verticalAlign=middle;resizable=0;points=[];autosize=1;" vertex="1" parent="1">
          <mxGeometry x="160" y="1990" width="140" height="50" as="geometry" />
        </mxCell>
        <mxCell id="jG3nlGbxou0WTmLIbMDZ-169" value="&lt;div&gt;1.createPackageJourney&lt;/div&gt;&lt;div&gt;2.updatePackageJourney&lt;/div&gt;&lt;div&gt;3.cancelPackage&lt;/div&gt;&lt;div&gt;4.reship&lt;/div&gt;" style="text;html=1;align=left;verticalAlign=middle;resizable=0;points=[];autosize=1;" vertex="1" parent="1">
          <mxGeometry x="547" y="1860" width="150" height="60" as="geometry" />
        </mxCell>
        <mxCell id="jG3nlGbxou0WTmLIbMDZ-170" value="&lt;div&gt;1.??&lt;/div&gt;&lt;div&gt;2.??&lt;/div&gt;&lt;div&gt;3.??&lt;/div&gt;" style="text;html=1;align=left;verticalAlign=middle;resizable=0;points=[];autosize=1;" vertex="1" parent="1">
          <mxGeometry x="340" y="1890" width="40" height="50" as="geometry" />
        </mxCell>
        <mxCell id="jG3nlGbxou0WTmLIbMDZ-180" value="&lt;div style=&quot;text-align: left&quot;&gt;1.updateTaskRequestStatus&lt;/div&gt;&lt;div style=&quot;text-align: left&quot;&gt;2.packageStatusUpdate&lt;/div&gt;&lt;div style=&quot;text-align: left&quot;&gt;3.trackingNumberUpdate&lt;/div&gt;&lt;div style=&quot;text-align: left&quot;&gt;4.packageDimensionUpdate&lt;/div&gt;" style="text;html=1;align=center;verticalAlign=middle;resizable=0;points=[];autosize=1;" vertex="1" parent="1">
          <mxGeometry x="260" y="2040" width="170" height="60" as="geometry" />
        </mxCell>
        <mxCell id="jG3nlGbxou0WTmLIbMDZ-189" value="" style="group" vertex="1" connectable="0" parent="1">
          <mxGeometry x="85" y="2130" width="235" height="120" as="geometry" />
        </mxCell>
        <mxCell id="jG3nlGbxou0WTmLIbMDZ-188" value="" style="shape=ext;double=1;rounded=0;whiteSpace=wrap;html=1;align=left;" vertex="1" parent="jG3nlGbxou0WTmLIbMDZ-189">
          <mxGeometry x="20" width="210" height="120" as="geometry" />
        </mxCell>
        <mxCell id="jG3nlGbxou0WTmLIbMDZ-142" value="TPS" style="rounded=1;whiteSpace=wrap;html=1;" vertex="1" parent="jG3nlGbxou0WTmLIbMDZ-189">
          <mxGeometry x="35" y="10" width="170" height="30" as="geometry" />
        </mxCell>
        <mxCell id="jG3nlGbxou0WTmLIbMDZ-153" value="3PLs" style="rounded=1;whiteSpace=wrap;html=1;" vertex="1" parent="jG3nlGbxou0WTmLIbMDZ-189">
          <mxGeometry x="35" y="51" width="50" height="60" as="geometry" />
        </mxCell>
        <mxCell id="jG3nlGbxou0WTmLIbMDZ-155" value="&lt;font&gt;&lt;span style=&quot;font-size: 18px&quot;&gt;LMS-CORE&lt;/span&gt;&lt;br&gt;&lt;font style=&quot;font-size: 12px&quot;&gt;task|?|?&lt;/font&gt;&lt;br&gt;&lt;/font&gt;" style="rounded=1;whiteSpace=wrap;html=1;" vertex="1" parent="jG3nlGbxou0WTmLIbMDZ-189">
          <mxGeometry x="105" y="51" width="105" height="60" as="geometry" />
        </mxCell>
        <mxCell id="jG3nlGbxou0WTmLIbMDZ-190" style="edgeStyle=orthogonalEdgeStyle;rounded=0;orthogonalLoop=1;jettySize=auto;html=1;exitX=0.75;exitY=0;exitDx=0;exitDy=0;entryX=0;entryY=0.75;entryDx=0;entryDy=0;" edge="1" parent="1" source="jG3nlGbxou0WTmLIbMDZ-188" target="jG3nlGbxou0WTmLIbMDZ-148">
          <mxGeometry relative="1" as="geometry" />
        </mxCell>
        <mxCell id="jG3nlGbxou0WTmLIbMDZ-197" value="&lt;div style=&quot;text-align: left&quot;&gt;1.fetchTask&lt;/div&gt;&lt;div style=&quot;text-align: left&quot;&gt;2.updatePackageStatus&lt;/div&gt;&lt;div style=&quot;text-align: left&quot;&gt;3.cancelPackageStatus&lt;/div&gt;&lt;div style=&quot;text-align: left&quot;&gt;4.updatePackageDimweight(just for sort)&lt;/div&gt;" style="text;html=1;align=center;verticalAlign=middle;resizable=0;points=[];autosize=1;" vertex="1" parent="1">
          <mxGeometry x="505" y="2040" width="230" height="60" as="geometry" />
        </mxCell>
        <mxCell id="jG3nlGbxou0WTmLIbMDZ-200" value="&lt;div style=&quot;text-align: left&quot;&gt;1.fetchTask&lt;/div&gt;&lt;div style=&quot;text-align: left&quot;&gt;2.updatePackageStatus&lt;/div&gt;&lt;div style=&quot;text-align: left&quot;&gt;3.cancelPackageStatus&lt;/div&gt;&lt;div style=&quot;text-align: left&quot;&gt;4.updatePackageDimweight(just for sort)&lt;/div&gt;" style="text;html=1;align=center;verticalAlign=middle;resizable=0;points=[];autosize=1;" vertex="1" parent="1">
          <mxGeometry x="530" y="1930" width="230" height="60" as="geometry" />
        </mxCell>
        <mxCell id="jG3nlGbxou0WTmLIbMDZ-199" value="&lt;div style=&quot;text-align: left&quot;&gt;1.createTask&lt;/div&gt;&lt;div style=&quot;text-align: left&quot;&gt;2.updateTask&lt;/div&gt;&lt;div style=&quot;text-align: left&quot;&gt;3.cancelTask&lt;/div&gt;&lt;div style=&quot;text-align: left&quot;&gt;4.cancelPackage&lt;/div&gt;&lt;div style=&quot;text-align: left&quot;&gt;5.triggerTask&lt;/div&gt;" style="text;html=1;align=center;verticalAlign=middle;resizable=0;points=[];autosize=1;" vertex="1" parent="1">
          <mxGeometry x="415" y="2060" width="110" height="80" as="geometry" />
        </mxCell>
        <mxCell id="jG3nlGbxou0WTmLIbMDZ-163" value="" style="shape=ext;double=1;rounded=0;whiteSpace=wrap;html=1;align=left;" vertex="1" parent="1">
          <mxGeometry x="400" y="2170" width="370" height="80" as="geometry" />
        </mxCell>
        <mxCell id="jG3nlGbxou0WTmLIbMDZ-164" value="station" style="rounded=1;whiteSpace=wrap;html=1;fillColor=#d5e8d4;strokeColor=#82b366;" vertex="1" parent="1">
          <mxGeometry x="415" y="2180" width="60" height="60" as="geometry" />
        </mxCell>
        <mxCell id="jG3nlGbxou0WTmLIbMDZ-165" value="FM" style="rounded=1;whiteSpace=wrap;html=1;fillColor=#ffe6cc;strokeColor=#d79b00;" vertex="1" parent="1">
          <mxGeometry x="485" y="2180" width="60" height="60" as="geometry" />
        </mxCell>
        <mxCell id="jG3nlGbxou0WTmLIbMDZ-166" value="SORT" style="rounded=1;whiteSpace=wrap;html=1;fillColor=#fff2cc;strokeColor=#d6b656;" vertex="1" parent="1">
          <mxGeometry x="555" y="2180" width="60" height="60" as="geometry" />
        </mxCell>
        <mxCell id="jG3nlGbxou0WTmLIbMDZ-167" value="LH" style="rounded=1;whiteSpace=wrap;html=1;fillColor=#f8cecc;strokeColor=#b85450;" vertex="1" parent="1">
          <mxGeometry x="625" y="2180" width="60" height="60" as="geometry" />
        </mxCell>
        <mxCell id="jG3nlGbxou0WTmLIbMDZ-168" value="LM" style="rounded=1;whiteSpace=wrap;html=1;fillColor=#e1d5e7;strokeColor=#9673a6;" vertex="1" parent="1">
          <mxGeometry x="695" y="2180" width="60" height="60" as="geometry" />
        </mxCell>
        <mxCell id="jG3nlGbxou0WTmLIbMDZ-207" value="实操人员" style="shape=umlActor;verticalLabelPosition=bottom;labelBackgroundColor=#ffffff;verticalAlign=top;html=1;outlineConnect=0;align=left;" vertex="1" parent="1">
          <mxGeometry x="735" y="2260" width="40" height="30" as="geometry" />
        </mxCell>
        <mxCell id="jG3nlGbxou0WTmLIbMDZ-210" value="" style="shape=flexArrow;endArrow=classic;html=1;" edge="1" parent="1">
          <mxGeometry width="50" height="50" relative="1" as="geometry">
            <mxPoint x="740" y="2277" as="sourcePoint" />
            <mxPoint x="430" y="2277" as="targetPoint" />
          </mxGeometry>
        </mxCell>
        <mxCell id="jG3nlGbxou0WTmLIbMDZ-211" value="从后往前切流" style="text;html=1;align=center;verticalAlign=middle;resizable=0;points=[];autosize=1;" vertex="1" parent="1">
          <mxGeometry x="558" y="2267" width="90" height="20" as="geometry" />
        </mxCell>
      </root>
    </mxGraphModel>
  </diagram>
</mxfile>
